# xmcd
#
# Track frame offsets:
#	150
#	23907
#	46362
#	67957
#	88465
#	113180
#	127757
#	144515
#	165315
#	187657
#	204335
#	225645
#	246635
#	267627
#	285190
#	302272
#
# Disc length: 4352 seconds
#
# Revision: 1
# Processed by: cddbd v1.5PL3 Copyright (c) Steve Scherf et al.
# Submitted via: CDex 1.50Beta5
#
DISCID=d410fe10
DTITLE=北島三郎 - 北島三郎全曲集
DYEAR=1900
DGENRE=
TTITLE0=宴＜うたげ＞
TTITLE1=時雨月
TTITLE2=山
TTITLE3=風雪ながれ旅
TTITLE4=城
TTITLE5=函館の女
TTITLE6=兄弟仁義
TTITLE7=息子
TTITLE8=北の大地
TTITLE9=なみだ船
TTITLE10=北の漁場
TTITLE11=男道
TTITLE12=川
TTITLE13=激唱−青函トンネル−
TTITLE14=男の涙
TTITLE15=拳（こぶし）
EXTD=
EXTT0=
EXTT1=
EXTT2=
EXTT3=
EXTT4=
EXTT5=
EXTT6=
EXTT7=
EXTT8=
EXTT9=
EXTT10=
EXTT11=
EXTT12=
EXTT13=
EXTT14=
EXTT15=
PLAYORDER=
